<?xml version="1.0" encoding="utf-8"?>
<!-- Svg Vector Icons : http://www.onlinewebfonts.com/icon -->
<!DOCTYPE svg PUBLIC "-//W3C//DTD SVG 1.1//EN" "http://www.w3.org/Graphics/SVG/1.1/DTD/svg11.dtd">
<svg version="1.1" xmlns="http://www.w3.org/2000/svg" xmlns:xlink="http://www.w3.org/1999/xlink" x="0px" y="0px" viewBox="0 0 1000 1000" enable-background="new 0 0 1000 1000" xml:space="preserve">
<metadata> Svg Vector Icons : http://www.onlinewebfonts.com/icon </metadata>
<g><g><path d="M603.3,68.6v877.7L916.3,771V178.9L603.3,68.6z M895.1,132.9c-17.1-6.4-313.3-117.6-313.3-117.6s18.4,11.7,18.4,32l313.1,114.2C913.4,161.5,912.1,139.3,895.1,132.9z M537,10H140.6c-31.4,0-56.9,25.5-56.9,56.9v866.1c0,31.4,25.5,56.9,56.9,56.9H537c31.4,0,56.9-25.6,56.9-56.9V66.9C593.9,35.5,568.4,10,537,10z M564.4,933.1c0,15.2-12.2,27.4-27.4,27.4H140.6c-15.2,0-27.4-12.3-27.4-27.4V66.9c0-15.2,12.3-27.4,27.4-27.4H537c15.2,0,27.4,12.3,27.4,27.4C564.4,66.9,564.4,933.1,564.4,933.1z M186.4,230.6h306.9c10.8,0,19.6-8.8,19.6-19.5V107.8c0-10.8-8.8-19.6-19.6-19.6H186.4c-10.8,0-19.5,8.8-19.5,19.6v103.3C166.9,221.8,175.6,230.6,186.4,230.6z M434.4,197.2h58.4v13.6h-58.4V197.2z M186.4,434h306.9c10.8,0,19.6-8.8,19.6-19.5V311.2c0-10.8-8.8-19.6-19.6-19.6H186.4c-10.8,0-19.5,8.8-19.5,19.6v103.3C166.9,425.3,175.6,434,186.4,434z M429,406.4h58.4V420H429V406.4z M340.4,778.1c-33.5,0-60.7,27.2-60.7,60.7c0,33.5,27.2,60.7,60.7,60.7c33.5,0,60.7-27.2,60.7-60.7C401.1,805.3,373.9,778.1,340.4,778.1z M340.4,870c-17.2,0-31.2-14-31.2-31.2c0-17.2,14-31.2,31.2-31.2c17.2,0,31.2,14,31.2,31.2C371.6,856,357.6,870,340.4,870z M166.4,675.7h346v29.9h-346V675.7z M167.4,600.4h346v29.8h-346V600.4z M167.4,522.3h346v29.8h-346V522.3z"/></g><g></g><g></g><g></g><g></g><g></g><g></g><g></g><g></g><g></g><g></g><g></g><g></g><g></g><g></g><g></g></g>
</svg>